<?xml version="1.0" encoding="UTF-8" standalone="no"?>
<svg
   xmlns:dc="http://purl.org/dc/elements/1.1/"
   xmlns:cc="http://creativecommons.org/ns#"
   xmlns:rdf="http://www.w3.org/1999/02/22-rdf-syntax-ns#"
   xmlns:svg="http://www.w3.org/2000/svg"
   xmlns="http://www.w3.org/2000/svg"
   xmlns:sodipodi="http://sodipodi.sourceforge.net/DTD/sodipodi-0.dtd"
   xmlns:inkscape="http://www.inkscape.org/namespaces/inkscape"
   width="255.10962"
   height="289.3222"
   viewBox="0 0 255.10962 289.3222"
   version="1.1"
   preserveAspectRatio="xMidYMid"
   id="svg2"
   inkscape:version="0.91 r13725"
   sodipodi:docname="html-5.01.svg">
  <metadata
     id="metadata30">
    <rdf:RDF>
      <cc:Work
         rdf:about="">
        <dc:format>image/svg+xml</dc:format>
        <dc:type
           rdf:resource="http://purl.org/dc/dcmitype/StillImage" />
        <dc:title></dc:title>
      </cc:Work>
    </rdf:RDF>
  </metadata>
  <defs
     id="defs28" />
  <sodipodi:namedview
     pagecolor="#ffffff"
     bordercolor="#666666"
     borderopacity="1"
     objecttolerance="10"
     gridtolerance="10"
     guidetolerance="10"
     inkscape:pageopacity="0"
     inkscape:pageshadow="2"
     inkscape:window-width="1920"
     inkscape:window-height="1043"
     id="namedview26"
     showgrid="false"
     fit-margin-top="0"
     fit-margin-left="0"
     fit-margin-right="0"
     fit-margin-bottom="0"
     inkscape:zoom="0.65373961"
     inkscape:cx="130.61414"
     inkscape:cy="179.58791"
     inkscape:window-x="0"
     inkscape:window-y="0"
     inkscape:window-maximized="1"
     inkscape:current-layer="svg2" />
  <path
     style="fill:#e44d26"
     inkscape:connector-curvature="0"
     id="path6"
     d="M 255.10962,0 231.86848,260.35974 127.39868,289.3222 23.216527,260.40053 0,0 l 255.10962,0 0,0 z" />
  <path
     style="fill:#f16529"
     inkscape:connector-curvature="0"
     id="path8"
     d="m 127.55481,267.18453 84.4167,-23.4036 19.8611,-222.489325 -104.2778,0 0,245.892925 0,0 z" />
  <path
     style="fill:#ebebeb"
     inkscape:connector-curvature="0"
     id="path10"
     d="m 82.375033,85.166416 45.179777,0 0,-31.9374 -80.082986,0 0.764483,8.56826 7.849495,88.009844 71.469008,0 0,-31.9367 -42.261096,0 -2.918681,-32.704004 0,0 z" />
  <path
     style="fill:#ebebeb"
     inkscape:connector-curvature="0"
     id="path12"
     d="m 89.572571,165.77618 -32.05978,0 4.474374,50.14576 65.420655,18.16123 0.14699,-0.0408 0,-33.22796 -0.13996,0.0373 -35.568521,-9.60422 -2.273758,-25.4713 0,0 z" />
  <path
     style="fill:#ffffff"
     inkscape:connector-curvature="0"
     id="path22"
     d="m 127.44439,149.80712 39.32695,0 -3.70708,41.41996 -35.61987,9.61407 0,33.22655 65.47271,-18.14576 0.48035,-5.39569 7.50488,-84.07983 0.77925,-8.576 -74.23719,0 0,31.9367 0,0 z" />
  <path
     style="fill:#ffffff"
     inkscape:connector-curvature="0"
     id="path24"
     d="m 127.44439,85.088356 0,0.0781 77.14321,0 0.6407,-7.17855 1.45512,-16.19059 0.76379,-8.56826 -80.00282,0 0,31.85934 0,0 z" />
</svg>
