<svg xmlns="http://www.w3.org/2000/svg" viewBox="0 0 398.81 32.15"><title>mediatemple-logo-white-superwide</title><path d="M16.45,9.77V11.7h.12a17.41,17.41,0,0,1,9.19-2.25c5.78,0,7.74,1.65,8.5,2.25a17.43,17.43,0,0,1,9.13-2.25c9.83,0,9.83,3.88,9.83,5.44V24H45.28V15.89c0-1.68,0-3.55-4.22-3.55-2.08,0-4.22.63-5,1.57a4.21,4.21,0,0,0-1,3.27V24H27.19V16.21c0-2.42.05-3.88-4.1-3.88-2.08,0-4.22.55-5,1.37-.63.63-1,1.29-1,3.39V24H9.11V9.77Z" fill="#fff"/><path d="M72.29,12.93H66.54v5.71c0,2,0,2.68,2.35,2.68A16.32,16.32,0,0,0,72,21l.25,0,.74,2.9a40.51,40.51,0,0,1-6.67.57c-2.59,0-5.93-.39-7.16-1.45-1-.87-1.17-1.72-1.17-3.88V12.93H54.13v-3H58V7.13l8.52-2.21v5h5.74Z" fill="#fff"/><path d="M5.24,32.08A29.64,29.64,0,0,1,0,16,28.09,28.09,0,0,1,5.3,0H8.48c-2.36,5.23-4,9.68-4,16.15A36.75,36.75,0,0,0,8.35,31.87a.66.66,0,0,1,.11.21Z" fill="#fff"/><path d="M76.33.07a29.67,29.67,0,0,1,5.23,16.08,28.07,28.07,0,0,1-5.3,16H73.08c2.36-5.24,4-9.68,4-16.15A36.78,36.78,0,0,0,73.22.27a.6.6,0,0,1-.1-.2Z" fill="#fff"/><path d="M98.68,9.67h4.5v2h.11c1.59-1.28,4.56-2.35,8.84-2.35s7.17.87,8.37,2.55c1-.78,3.59-2.55,9.11-2.55,9.12,0,9.17,3.84,9.17,4.87v10h-5V15c0-1.4,0-3.55-5.3-3.55-2.16,0-4.73.52-5.93,1.51a3.34,3.34,0,0,0-1.31,2.77v8.43h-5V14.72c0-1.37-.28-3.26-5.19-3.26-2.68,0-5.18.69-6.1,1.68a4.58,4.58,0,0,0-1.25,3.5v7.53h-5Z" fill="#fff"/><path d="M147.22,15.51c.28-1.9,2.85-4.17,8.43-4.17,3.59,0,6.43,1.09,7.46,2.33a3.88,3.88,0,0,1,.81,1.84h-16.7m16.52,4c-.63.83-2.16,3-7.8,3-4.44,0-8.6-1.48-9-5H169c.46-7.85-10.88-8.21-13.38-8.21-9,0-13.84,3.28-13.84,7.7s5,7.48,14.13,7.48c7.29,0,11.45-2,12.93-4.7Z" fill="#fff"/><path d="M175.6,16.91c0-1.06.33-5.57,7.85-5.57,6.1,0,8.09,3,8.09,5.8,0,5-6.27,5.34-7.86,5.34-2.91,0-8.08-1-8.08-5.58m15.83,7.26h4.67v-20h-5v7.19H191c-1.54-1.14-4.33-2-8-2-7.41,0-12.48,2.85-12.48,7.58s5.7,7.6,12.71,7.6c1.08,0,5.47,0,8.14-2.19h.11Z" fill="#fff"/><path d="M201.05,9.67h5v14.5h-5V9.67m0-5.55h5v2.8h-5Z" fill="#fff"/><path d="M229.83,17.78c0,1.21-.23,2.35-2.22,3.42a16.94,16.94,0,0,1-7.12,1.37c-4.5,0-5.92-1.26-5.92-2.29,0-2,3.93-2.24,7-2.46,2.62-.2,6.32-.56,8.26-.93v.9M215,14.12c.63-1.2,1.42-2.77,7.7-2.77,7.34,0,7.29,2,7.18,3.61-2.86.5-8.26.78-9,.84-3.25.19-11.62.67-11.62,4.53,0,2.41,3.59,4.18,10.08,4.18a26.71,26.71,0,0,0,10.88-2.13,3.47,3.47,0,0,0,1,1.79h5.24c-1.6-1.4-1.6-2.35-1.6-6.07V14.78c0-2.52,0-5.45-11.45-5.45s-12.76,3.18-13.33,4.49Z" fill="#fff"/><path d="M253.47,12.71h-5.3v5.85c0,2.07,0,2.74,2.17,2.74a14.7,14.7,0,0,0,2.9-.33l.22,0,.69,3a34.52,34.52,0,0,1-6.16.59c-2.39,0-5.46-.4-6.61-1.49-1-.89-1.08-1.76-1.08-4V12.71h-3.59v-3h3.59V6.78l7.86-2.27V9.67h5.3Z" fill="#fff"/><path d="M261.22,15.66c-.06-1.9,2.16-3.39,5.86-3.39,1.2,0,5.64.23,5.81,3.39H261.22m11.22,3.89c-.4.67-1.31,2-5,2-4.45,0-6.32-1.81-6.44-3.55h19.6c.17-4.29-2.9-8.68-14-8.68-9.34,0-13.56,3.76-13.56,7.68a5.89,5.89,0,0,0,1.77,4c3.14,3.31,10,3.47,12.53,3.47,9.8,0,12.24-3.42,12.88-4.31Z" fill="#fff"/><path d="M289.92,9.67v2H290a16.65,16.65,0,0,1,9.05-2.29c5.7,0,7.64,1.68,8.38,2.29a16.78,16.78,0,0,1,9-2.29c9.69,0,9.69,3.94,9.69,5.55v9.29h-7.81V15.88c0-1.7,0-3.61-4.17-3.61-2,0-4.15.65-4.88,1.6-.69.8-1,1.53-1,3.33v7h-7.81v-8c0-2.45.06-3.94-4-3.94-2,0-4.15.56-5,1.41-.62.64-1,1.31-1,3.44v7h-7.81V9.67Z" fill="#fff"/><path d="M337.67,17.25a3.91,3.91,0,0,1,2.63-4.06,10.25,10.25,0,0,1,4.21-.82c2.67,0,6.21.92,6.21,4.51,0,1.62-.75,4.67-6.49,4.67-3.66,0-6.56-1.36-6.56-4.3m-7.75-7.59v20h7.81V22.49a16.61,16.61,0,0,0,8.6,2c6.56,0,12.43-2.33,12.43-7.45s-6-7.73-12.37-7.73c-1.76,0-6,.3-9,2.46h-.13V9.67Z" fill="#fff"/><rect x="361.2" y="4.12" width="7.81" height="20.05" fill="#fff"/><path d="M379.37,15.66c-.05-1.9,2.17-3.39,5.88-3.39,1.18,0,5.62.23,5.8,3.39H379.37m11.24,3.89c-.4.67-1.32,2-5,2-4.44,0-6.32-1.81-6.43-3.55h19.6c.17-4.29-2.91-8.68-14-8.68-9.35,0-13.56,3.76-13.56,7.68A5.93,5.93,0,0,0,373,21c3.13,3.31,10,3.47,12.53,3.47,9.8,0,12.26-3.42,12.88-4.31Z" fill="#fff"/><polygon points="340.27 27.14 339.37 27.14 339.37 26.65 341.79 26.65 341.79 27.14 340.87 27.14 340.87 29.5 340.27 29.5 340.27 27.14" fill="#fff"/><polygon points="342.17 26.65 343.08 26.65 343.64 28.59 343.64 28.59 344.18 26.65 345.11 26.65 345.11 29.5 344.54 29.5 344.54 27.26 344.54 27.26 343.93 29.5 343.34 29.5 342.75 27.26 342.74 27.26 342.74 29.5 342.17 29.5 342.17 26.65" fill="#fff"/></svg>