<?xml version="1.0" encoding="UTF-8" standalone="no"?>
<svg
   xmlns:dc="http://purl.org/dc/elements/1.1/"
   xmlns:cc="http://creativecommons.org/ns#"
   xmlns:rdf="http://www.w3.org/1999/02/22-rdf-syntax-ns#"
   xmlns:svg="http://www.w3.org/2000/svg"
   xmlns="http://www.w3.org/2000/svg"
   xmlns:sodipodi="http://sodipodi.sourceforge.net/DTD/sodipodi-0.dtd"
   xmlns:inkscape="http://www.inkscape.org/namespaces/inkscape"
   width="235"
   height="83.967003"
   viewBox="0 0 234.99999 83.967004"
   version="1.1"
   preserveAspectRatio="xMidYMid"
   id="svg2"
   inkscape:version="0.91 r13725"
   sodipodi:docname="express.01.svg">
  <metadata
     id="metadata12">
    <rdf:RDF>
      <cc:Work
         rdf:about="">
        <dc:format>image/svg+xml</dc:format>
        <dc:type
           rdf:resource="http://purl.org/dc/dcmitype/StillImage" />
        <dc:title></dc:title>
      </cc:Work>
    </rdf:RDF>
  </metadata>
  <defs
     id="defs10" />
  <sodipodi:namedview
     pagecolor="#000000"
     bordercolor="#666666"
     borderopacity="1"
     objecttolerance="10"
     gridtolerance="10"
     guidetolerance="10"
     inkscape:pageopacity="0"
     inkscape:pageshadow="2"
     inkscape:window-width="1920"
     inkscape:window-height="1043"
     id="namedview8"
     showgrid="false"
     showborder="true"
     inkscape:zoom="0.59375"
     inkscape:cx="460.36842"
     inkscape:cy="50.684204"
     inkscape:window-x="1920"
     inkscape:window-y="0"
     inkscape:window-maximized="1"
     inkscape:current-layer="svg2"
     fit-margin-top="0"
     fit-margin-left="0"
     fit-margin-right="0"
     fit-margin-bottom="0" />
  <path
     style="fill:#ffffff;fill-opacity:1"
     inkscape:connector-curvature="0"
     id="path6"
     d="m 15.65217,68.713921 0,-23.339323 29.14004,0 0,-1.364873 -29.14004,0 0,-21.292014 30.98261,0 0,-1.364873 -32.34748,0 0,48.725956 32.62046,0 0,-1.364873 -31.25559,0 0,0 z M 73.18156,35.001565 61.10243,50.90233 49.29629,35.001565 l -1.77434,0 12.76156,16.924421 -13.98995,18.152808 1.63785,0 13.17102,-17.129156 13.23927,17.129156 1.70609,0 -14.05819,-18.152808 12.82981,-16.924421 -1.63785,0 0,0 z m 6.96085,47.088106 0,-21.83796 0.13649,0 c 0.81892,3.184716 2.43401,5.74383 4.8453,7.677405 2.41129,1.93358 5.48223,2.900355 9.2129,2.900355 2.41129,0 4.54954,-0.489073 6.41487,-1.467239 1.86534,-0.978162 3.42356,-2.3089 4.67471,-3.99225 1.25115,-1.683354 2.20653,-3.639649 2.86623,-5.868953 0.65969,-2.229303 0.98954,-4.57231 0.98954,-7.029094 0,-2.638767 -0.34124,-5.072766 -1.02366,-7.302069 -0.68243,-2.229303 -1.67197,-4.162854 -2.96858,-5.800708 -1.29666,-1.637856 -2.86623,-2.911724 -4.70883,-3.821644 -1.84261,-0.90992 -3.92401,-1.364873 -6.24428,-1.364873 -1.77437,0 -3.42356,0.261599 -4.94766,0.784802 -1.52415,0.523204 -2.87761,1.262503 -4.06052,2.217918 -1.18287,0.955416 -2.20653,2.081425 -3.07096,3.378061 -0.86442,1.296633 -1.5241,2.718362 -1.97906,4.265227 l -0.13649,0 0,-9.827084 -1.36487,0 0,47.088106 1.36487,0 0,0 z M 94.3371,69.532845 c -4.27662,0 -7.71153,-1.467223 -10.3048,-4.401718 -2.59328,-2.934491 -3.88989,-7.154181 -3.88989,-12.659192 0,-2.274801 0.31846,-4.435829 0.95541,-6.483145 0.63694,-2.04732 1.55822,-3.844386 2.76389,-5.391249 1.20564,-1.546861 2.69558,-2.775235 4.46995,-3.685154 1.77432,-0.90992 3.77614,-1.364873 6.00544,-1.364873 2.27477,0 4.2652,0.454953 5.97132,1.364873 1.70609,0.909919 3.11645,2.149667 4.23108,3.719277 1.11467,1.569612 1.95631,3.366674 2.52503,5.391245 0.56868,2.024572 0.85302,4.174225 0.85302,6.449026 0,2.04732 -0.26156,4.083233 -0.78478,6.107804 -0.52322,2.024572 -1.33073,3.844386 -2.42263,5.459493 -1.09194,1.615108 -2.49091,2.934471 -4.197,3.958131 -1.70609,1.023656 -3.76475,1.535482 -6.17604,1.535482 l 0,0 0,0 z m 22.45216,0.545949 0,-19.858899 c 0,-1.910831 0.27295,-3.776139 0.8189,-5.595978 0.54595,-1.819839 1.38763,-3.423548 2.52503,-4.811177 1.13741,-1.387626 2.58185,-2.479514 4.33348,-3.275693 1.75159,-0.79618 3.83299,-1.126021 6.24428,-0.989533 l 0,-1.364873 c -2.09283,-0.0455 -3.92401,0.181981 -5.49362,0.682437 -1.5696,0.500456 -2.92311,1.182885 -4.06048,2.047309 -1.1374,0.864424 -2.04732,1.876694 -2.72974,3.036843 -0.68247,1.160144 -1.18291,2.39989 -1.50137,3.719273 l -0.13648,0 0,-8.666938 -1.36489,0 0,35.077229 1.36489,0 0,0 z m 15.62777,-17.265642 29.34475,0 c 0.091,-2.411286 -0.14782,-4.731548 -0.71655,-6.960851 -0.56868,-2.229304 -1.47859,-4.208348 -2.72974,-5.937195 -1.25115,-1.728847 -2.86623,-3.116453 -4.84531,-4.162861 -1.97904,-1.046408 -4.33343,-1.569604 -7.06318,-1.569604 -1.95635,0 -3.86715,0.409458 -5.73249,1.228386 -1.86534,0.818928 -3.50314,2.013179 -4.91354,3.582791 -1.41036,1.569612 -2.54777,3.491787 -3.41218,5.766584 -0.8644,2.274801 -1.29661,4.868034 -1.29661,7.779776 0,2.593269 0.29569,5.015897 0.88714,7.267945 0.59146,2.252052 1.50137,4.208352 2.72975,5.868953 1.22842,1.660605 2.80937,2.945849 4.74295,3.855769 1.93357,0.909919 4.26519,1.342124 6.99498,1.296626 4.00363,0 7.3703,-1.126009 10.10004,-3.378057 2.72975,-2.252053 4.34482,-5.42535 4.84531,-9.51999 l -1.3649,0 c -0.59145,3.867159 -2.10417,6.767486 -4.53819,8.701066 -2.43402,1.933579 -5.49361,2.900355 -9.17878,2.900355 -2.50226,0 -4.61781,-0.432205 -6.34663,-1.296631 -1.72886,-0.864422 -3.13922,-2.047304 -4.23112,-3.54867 -1.0919,-1.501367 -1.89946,-3.264309 -2.42263,-5.288881 -0.52322,-2.024571 -0.80756,-4.219718 -0.85307,-6.585511 l 0,0 0,0 z m 27.9799,-1.364873 -27.9799,0 c 0.13648,-2.456784 0.59146,-4.663306 1.3649,-6.61963 0.77339,-1.956329 1.78567,-3.62828 3.03682,-5.015909 1.25115,-1.387626 2.70697,-2.445392 4.36759,-3.173328 1.66062,-0.727936 3.44629,-1.091898 5.35714,-1.091898 2.27481,0 4.27658,0.420832 6.00544,1.262508 1.72882,0.841675 3.1733,1.990431 4.33347,3.446302 1.16014,1.455871 2.03594,3.150571 2.62735,5.084151 0.59146,1.933579 0.88719,3.969492 0.88719,6.107804 l 0,0 0,0 z m 29.68597,-6.073681 1.3649,0 c 0,-3.912657 -1.13741,-6.756111 -3.41222,-8.530455 -2.27476,-1.774343 -5.36848,-2.661502 -9.28113,-2.661502 -2.1838,0 -4.02637,0.272972 -5.52774,0.818924 -1.50137,0.545952 -2.7297,1.251129 -3.68512,2.115553 -0.95543,0.864423 -1.63785,1.819825 -2.04732,2.866231 -0.40948,1.046408 -0.61419,2.047302 -0.61419,3.00272 0,1.910831 0.34119,3.434926 1.02366,4.572322 0.68242,1.137401 1.75155,2.024559 3.20746,2.661504 1.00088,0.454958 2.13829,0.864418 3.41217,1.228384 1.27388,0.36397 2.75248,0.750677 4.43583,1.160141 1.50137,0.363971 2.97997,0.727933 4.43583,1.091899 1.45587,0.36397 2.7411,0.853043 3.85577,1.467239 1.11463,0.614196 2.02455,1.398989 2.72975,2.354406 0.7052,0.955413 1.05778,2.206534 1.05778,3.753399 0,1.501366 -0.35258,2.775236 -1.05778,3.821645 -0.7052,1.046409 -1.60373,1.899444 -2.69563,2.559133 -1.0919,0.659694 -2.30889,1.137393 -3.65105,1.43312 -1.34212,0.295724 -2.65012,0.443584 -3.924,0.443584 -4.14015,0 -7.31345,-0.921282 -9.51998,-2.76387 -2.20657,-1.842588 -3.30981,-4.742911 -3.30981,-8.701062 l -1.3649,0 c 0,4.413109 1.19426,7.643278 3.58282,9.690594 2.38851,2.047321 5.92577,3.070964 10.61187,3.070964 1.50137,0 3.01408,-0.170608 4.53819,-0.511826 1.52414,-0.341221 2.88899,-0.898537 4.09464,-1.671971 1.20564,-0.77343 2.1838,-1.774325 2.93446,-3.002717 0.75071,-1.228392 1.12602,-2.729738 1.12602,-4.50408 0,-1.683354 -0.32985,-3.048211 -0.98954,-4.09462 -0.65966,-1.046409 -1.52407,-1.910818 -2.59323,-2.593257 -1.06917,-0.682438 -2.27481,-1.217009 -3.61693,-1.603724 -1.34212,-0.38672 -2.69563,-0.762052 -4.06048,-1.126022 -1.91084,-0.500456 -3.58281,-0.932661 -5.0159,-1.296627 -1.43313,-0.36397 -2.76387,-0.796175 -3.99228,-1.29663 -1.18287,-0.500456 -2.12691,-1.217006 -2.83211,-2.149674 -0.70516,-0.932669 -1.05778,-2.263406 -1.05778,-3.992254 0,-0.318473 0.091,-0.887163 0.273,-1.706091 0.18198,-0.818927 0.61418,-1.649217 1.29661,-2.490891 0.68243,-0.841676 1.72882,-1.592348 3.13922,-2.25204 1.41036,-0.659692 3.34393,-0.989533 5.80069,-0.989533 1.68335,0 3.21884,0.181981 4.60647,0.545949 1.38762,0.363968 2.58188,0.944033 3.58276,1.740213 1.00093,0.796179 1.77437,1.808452 2.32032,3.036839 0.54595,1.228391 0.8189,2.729738 0.8189,4.504083 l 0,0 0,0 z m 31.59683,0 1.36485,0 c 0,-3.912657 -1.13737,-6.756111 -3.41218,-8.530455 -2.2748,-1.774343 -5.36848,-2.661502 -9.28113,-2.661502 -2.1838,0 -4.02636,0.272972 -5.52773,0.818924 -1.50138,0.545952 -2.72975,1.251129 -3.68517,2.115553 -0.95542,0.864423 -1.63785,1.819825 -2.04732,2.866231 -0.40943,1.046408 -0.61419,2.047302 -0.61419,3.00272 0,1.910831 0.34123,3.434926 1.02366,4.572322 0.68247,1.137401 1.75159,2.024559 3.20746,2.661504 1.00092,0.454958 2.13829,0.864418 3.41217,1.228384 1.27388,0.36397 2.75248,0.750677 4.43583,1.160141 1.50137,0.363971 2.97997,0.727933 4.43584,1.091899 1.4559,0.36397 2.74113,0.853043 3.85576,1.467239 1.11467,0.614196 2.02459,1.398989 2.72975,2.354406 0.7052,0.955413 1.05778,2.206534 1.05778,3.753399 0,1.501366 -0.35258,2.775236 -1.05778,3.821645 -0.70516,1.046409 -1.60369,1.899444 -2.69559,2.559133 -1.09194,0.659694 -2.30893,1.137393 -3.65105,1.43312 -1.34212,0.295724 -2.65012,0.443584 -3.924,0.443584 -4.14015,0 -7.31345,-0.921282 -9.52002,-2.76387 -2.20653,-1.842588 -3.30981,-4.742911 -3.30981,-8.701062 l -1.36485,0 c 0,4.413109 1.19425,7.643278 3.58277,9.690594 2.38855,2.047321 5.92581,3.070964 10.61191,3.070964 1.50137,0 3.01409,-0.170608 4.53819,-0.511826 1.5241,-0.341221 2.88896,-0.898537 4.0946,-1.671971 1.20564,-0.77343 2.1838,-1.774325 2.9345,-3.002717 C 223.62465,64.414565 224,62.913219 224,61.138877 c 0,-1.683354 -0.32985,-3.048211 -0.98954,-4.09462 -0.6597,-1.046409 -1.5241,-1.910818 -2.59327,-2.593257 -1.06913,-0.682438 -2.27477,-1.217009 -3.61689,-1.603724 -1.34216,-0.38672 -2.69563,-0.762052 -4.06052,-1.126022 -1.9108,-0.500456 -3.58277,-0.932661 -5.0159,-1.296627 -1.43313,-0.36397 -2.76387,-0.796175 -3.99224,-1.29663 -1.18291,-0.500456 -2.12695,-1.217006 -2.83211,-2.149674 -0.7052,-0.932669 -1.05778,-2.263406 -1.05778,-3.992254 0,-0.318473 0.091,-0.887163 0.27296,-1.706091 0.18198,-0.818927 0.61418,-1.649217 1.29665,-2.490891 0.68243,-0.841676 1.72882,-1.592348 3.13918,-2.25204 1.4104,-0.659692 3.34393,-0.989533 5.80073,-0.989533 1.68335,0 3.2188,0.181981 4.60643,0.545949 1.38762,0.363968 2.58188,0.944033 3.58281,1.740213 1.00092,0.796179 1.77432,1.808452 2.32027,3.036839 0.54595,1.228391 0.81895,2.729738 0.81895,4.504083 l 0,0 0,0 z" />
</svg>
