<?xml version="1.0" encoding="UTF-8" standalone="no"?>
<svg
   xmlns:dc="http://purl.org/dc/elements/1.1/"
   xmlns:cc="http://creativecommons.org/ns#"
   xmlns:rdf="http://www.w3.org/1999/02/22-rdf-syntax-ns#"
   xmlns:svg="http://www.w3.org/2000/svg"
   xmlns="http://www.w3.org/2000/svg"
   xmlns:sodipodi="http://sodipodi.sourceforge.net/DTD/sodipodi-0.dtd"
   xmlns:inkscape="http://www.inkscape.org/namespaces/inkscape"
   width="530"
   height="205"
   viewBox="0 0 530 205"
   version="1.1"
   preserveAspectRatio="xMidYMid"
   id="svg2"
   inkscape:version="0.91 r13725"
   sodipodi:docname="express.on-black.01.svg">
  <metadata
     id="metadata12">
    <rdf:RDF>
      <cc:Work
         rdf:about="">
        <dc:format>image/svg+xml</dc:format>
        <dc:type
           rdf:resource="http://purl.org/dc/dcmitype/StillImage" />
        <dc:title></dc:title>
      </cc:Work>
    </rdf:RDF>
  </metadata>
  <defs
     id="defs10" />
  <sodipodi:namedview
     pagecolor="#000000"
     bordercolor="#666666"
     borderopacity="1"
     objecttolerance="10"
     gridtolerance="10"
     guidetolerance="10"
     inkscape:pageopacity="0"
     inkscape:pageshadow="2"
     inkscape:window-width="1920"
     inkscape:window-height="1043"
     id="namedview8"
     showgrid="false"
     showborder="true"
     inkscape:zoom="0.59375"
     inkscape:cx="-48.842106"
     inkscape:cy="71.131579"
     inkscape:window-x="1920"
     inkscape:window-y="0"
     inkscape:window-maximized="1"
     inkscape:current-layer="svg2" />
  <path
     style="fill:#ffffff;fill-opacity:1"
     inkscape:connector-curvature="0"
     id="path6"
     d="m 13.332249,147.31324 0,-56.981449 71.143508,0 0,-3.33225 -71.143508,0 0,-51.983081 75.642043,0 0,-3.332249 -78.974292,0 0,118.961279 79.640742,0 0,-3.33225 -76.308493,0 0,0 z M 153.78653,65.006697 124.29613,103.82739 95.472177,65.006697 l -4.331923,0 31.156526,41.319883 -34.15555,44.31891 3.998698,0 32.156202,-41.81973 32.32281,41.81973 4.16531,0 -34.32216,-44.31891 31.32314,-41.319883 -3.9987,0 0,0 z m 16.99447,114.962573 0,-53.31597 0.33322,0 c 1.99936,7.77528 5.94248,14.02319 11.82948,18.74389 5.887,4.72071 13.38449,7.08103 22.49268,7.08103 5.887,0 11.10747,-1.19404 15.66157,-3.58217 4.5541,-2.38812 8.35837,-5.63703 11.41295,-9.74682 3.05458,-4.1098 5.38713,-8.88597 6.99772,-14.32867 1.6106,-5.4427 2.41588,-11.163 2.41588,-17.16108 0,-6.44238 -0.83305,-12.384829 -2.49918,-17.827529 -1.66614,-5.4427 -4.08199,-10.16334 -7.24764,-14.162058 -3.16566,-3.998719 -6.9977,-7.108786 -11.49626,-9.330296 -4.49856,-2.221511 -9.58019,-3.332249 -15.24504,-3.332249 -4.33194,0 -8.35837,0.638675 -12.0794,1.916043 -3.72103,1.277368 -7.02548,3.082318 -9.91344,5.414904 -2.88796,2.332586 -5.38712,5.081663 -7.49756,8.247316 -2.11043,3.16565 -3.721,6.63671 -4.83176,10.41328 l -0.33322,0 0,-23.992194 -3.33225,0 0,114.962573 3.33225,0 0,0 z m 34.65538,-30.65668 c -10.4411,0 -18.82717,-3.58213 -25.15848,-10.74651 -6.3313,-7.16437 -9.4969,-17.46647 -9.4969,-30.9066 0,-5.55378 0.77751,-10.829789 2.33257,-15.828179 1.55506,-4.9984 3.8043,-9.38582 6.7478,-13.16239 2.9435,-3.776562 6.58117,-6.775556 10.91312,-8.997066 4.33194,-2.22151 9.21919,-3.332248 14.66189,-3.332248 5.55378,0 10.41326,1.110738 14.57859,3.332248 4.16533,2.22151 7.60862,5.248273 10.32997,9.080376 2.72135,3.83211 4.77622,8.21952 6.16466,13.16238 1.38844,4.94286 2.08266,10.191099 2.08266,15.744879 0,4.9984 -0.63868,9.96895 -1.91605,14.91181 -1.27737,4.94286 -3.24893,9.38582 -5.91474,13.329 -2.66581,3.94318 -6.08133,7.16432 -10.24666,9.66352 -4.16534,2.49919 -9.19143,3.74878 -15.07843,3.74878 l 0,0 0,0 z m 54.81549,1.3329 0,-48.48422 c 0,-4.665169 0.66644,-9.219199 1.99935,-13.662219 1.33291,-4.44302 3.38777,-8.35837 6.16466,-11.74618 2.77689,-3.3878 6.30348,-6.053573 10.57989,-7.997394 4.27641,-1.943822 9.35804,-2.749107 15.24504,-2.41588 l 0,-3.332249 c -5.10948,-0.111076 -9.5802,0.444294 -13.4123,1.666124 -3.83211,1.221831 -7.13656,2.887939 -9.91344,4.998373 -2.77689,2.110435 -4.99837,4.581828 -6.6645,7.414256 -1.66613,2.83242 -2.88795,5.85918 -3.66547,9.08037 l -0.33323,0 0,-21.159774 -3.33225,0 0,85.638793 3.33225,0 0,0 z m 38.15425,-42.15295 71.64334,0 c 0.22215,-5.887 -0.36098,-11.551769 -1.74943,-16.994469 -1.38844,-5.4427 -3.60992,-10.27441 -6.66449,-14.49528 -3.05458,-4.220868 -6.9977,-7.60862 -11.82949,-10.163357 -4.83178,-2.554737 -10.57985,-3.832086 -17.24438,-3.832086 -4.77625,0 -9.44135,0.999665 -13.99545,2.999024 -4.55409,1.999359 -8.55275,4.915047 -11.99609,8.747152 -3.44334,3.832107 -6.22019,8.524977 -8.33062,14.078747 -2.11044,5.55378 -3.16564,11.884989 -3.16564,18.993819 0,6.3313 0.72198,12.24599 2.16596,17.74422 1.44398,5.49824 3.66546,10.27442 6.6645,14.32867 2.99904,4.05426 6.85885,7.1921 11.57956,9.41361 4.72071,2.22151 10.41325,3.27671 17.07778,3.16563 9.77464,0 17.99411,-2.74908 24.65864,-8.24731 6.66453,-5.49824 10.60765,-13.24564 11.82948,-23.24244 l -3.33225,0 c -1.44398,9.44142 -5.13719,16.52238 -11.07973,21.24309 -5.94254,4.72071 -13.41225,7.08103 -22.40937,7.08103 -6.10915,0 -11.27409,-1.0552 -15.49495,-3.16564 -4.22087,-2.11043 -7.66416,-4.99836 -10.32998,-8.66385 -2.66581,-3.66549 -4.63737,-7.9696 -5.91474,-12.91246 -1.27737,-4.94286 -1.97158,-10.30217 -2.08265,-16.0781 l 0,0 0,0 z m 68.31109,-3.33225 -68.31109,0 c 0.33322,-5.998079 1.44396,-11.385159 3.33225,-16.161399 1.88828,-4.77625 4.35967,-8.85821 7.41425,-12.24602 3.05458,-3.3878 6.60894,-5.970267 10.6632,-7.747475 4.05425,-1.777209 8.4139,-2.665799 13.07907,-2.665799 5.55378,0 10.44103,1.027433 14.66189,3.08233 4.22087,2.054897 7.74747,4.859511 10.57989,8.413924 2.83243,3.55442 4.9706,7.69192 6.41458,12.41263 1.44398,4.72071 2.16596,9.69126 2.16596,14.911809 l 0,0 0,0 z m 72.47641,-14.828499 3.33225,0 c 0,-9.5525 -2.77685,-16.494613 -8.33062,-20.826558 -5.55378,-4.331945 -13.1068,-6.497885 -22.65929,-6.497885 -5.33163,0 -9.83012,0.666443 -13.49561,1.999349 -3.66549,1.332906 -6.66448,3.054551 -8.99707,5.164986 -2.33259,2.110434 -3.99869,4.442985 -4.99837,6.997718 -0.99968,2.55474 -1.49951,4.99836 -1.49951,7.33095 0,4.66517 0.83305,8.38615 2.49918,11.16303 1.66613,2.77689 4.27637,4.942829 7.83079,6.497889 2.44366,1.11075 5.2205,2.11042 8.33062,2.99902 3.11011,0.88861 6.72001,1.83273 10.82981,2.83241 3.66549,0.88861 7.27539,1.7772 10.8298,2.6658 3.55442,0.88861 6.69226,2.08265 9.41361,3.58217 2.72135,1.49952 4.94282,3.41554 6.66449,5.74813 1.72167,2.33258 2.5825,5.38711 2.5825,9.16368 0,3.66549 -0.86083,6.77556 -2.5825,9.3303 -1.72167,2.55474 -3.91538,4.63737 -6.58119,6.24796 -2.66581,1.6106 -5.63704,2.77687 -8.91376,3.49887 -3.27673,0.72199 -6.4701,1.08298 -9.58022,1.08298 -10.10787,0 -17.85527,-2.24925 -23.24243,-6.74781 -5.38716,-4.49856 -8.0807,-11.57951 -8.0807,-21.24308 l -3.33225,0 c 0,10.77432 2.91569,18.66057 8.74715,23.65896 5.83146,4.9984 14.46745,7.49756 25.90823,7.49756 3.66549,0 7.3587,-0.41653 11.07973,-1.24959 3.72103,-0.83307 7.05324,-2.19372 9.99674,-4.08201 2.94351,-1.88828 5.33159,-4.3319 7.16434,-7.33094 1.83275,-2.99904 2.7491,-6.66448 2.7491,-10.99642 0,-4.1098 -0.80528,-7.44201 -2.41588,-9.99675 -1.61059,-2.55474 -3.72099,-4.66514 -6.33127,-6.33127 -2.61027,-1.66613 -5.55373,-2.97125 -8.83046,-3.91539 -3.27672,-0.94415 -6.58117,-1.8605 -9.91344,-2.74911 -4.66517,-1.22183 -8.74713,-2.27703 -12.24601,-3.16563 -3.49888,-0.88861 -6.74779,-1.94381 -9.74683,-3.165639 -2.88796,-1.22183 -5.19274,-2.97124 -6.91441,-5.24829 -1.72167,-2.27705 -2.5825,-5.52596 -2.5825,-9.74683 0,-0.77753 0.22215,-2.16595 0.66645,-4.16531 0.44431,-1.99936 1.49951,-4.02646 3.16564,-6.081354 1.66613,-2.054897 4.22083,-3.887615 7.66417,-5.49821 3.44334,-1.610595 8.16398,-2.41588 14.16206,-2.41588 4.10979,0 7.85853,0.444295 11.24634,1.332899 3.3878,0.888604 6.30349,2.304796 8.74715,4.248617 2.44366,1.943821 4.33192,4.415218 5.66482,7.414248 1.33291,2.99904 1.99935,6.66448 1.99935,10.99643 l 0,0 0,0 z m 77.14156,0 3.33225,0 c 0,-9.5525 -2.77685,-16.494613 -8.33063,-20.826558 -5.55377,-4.331945 -13.10679,-6.497885 -22.65929,-6.497885 -5.33162,0 -9.83011,0.666443 -13.4956,1.999349 -3.66549,1.332906 -6.66449,3.054551 -8.99707,5.164986 -2.33259,2.110434 -3.9987,4.442985 -4.99838,6.997718 -0.99968,2.55474 -1.49951,4.99836 -1.49951,7.33095 0,4.66517 0.83305,8.38615 2.49919,11.16303 1.66613,2.77689 4.27637,4.942829 7.83078,6.497889 2.44366,1.11075 5.22051,2.11042 8.33062,2.99902 3.11012,0.88861 6.72002,1.83273 10.82981,2.83241 3.66549,0.88861 7.27539,1.7772 10.82981,2.6658 3.55442,0.88861 6.69225,2.08265 9.4136,3.58217 2.72135,1.49952 4.94283,3.41554 6.6645,5.74813 1.72167,2.33258 2.58249,5.38711 2.58249,9.16368 0,3.66549 -0.86082,6.77556 -2.58249,9.3303 -1.72167,2.55474 -3.91538,4.63737 -6.58119,6.24796 -2.66581,1.6106 -5.63704,2.77687 -8.91377,3.49887 -3.27672,0.72199 -6.4701,1.08298 -9.58021,1.08298 -10.10787,0 -17.85527,-2.24925 -23.24244,-6.74781 -5.38716,-4.49856 -8.0807,-11.57951 -8.0807,-21.24308 l -3.33225,0 c 0,10.77432 2.91569,18.66057 8.74715,23.65896 5.83147,4.9984 14.46746,7.49756 25.90824,7.49756 3.66549,0 7.35869,-0.41653 11.07972,-1.24959 3.72103,-0.83307 7.05325,-2.19372 9.99675,-4.08201 2.9435,-1.88828 5.33159,-4.3319 7.16433,-7.33094 C 521.08364,136.81664 522,133.1512 522,128.81926 c 0,-4.1098 -0.80529,-7.44201 -2.41588,-9.99675 -1.6106,-2.55474 -3.721,-4.66514 -6.33127,-6.33127 -2.61028,-1.66613 -5.55373,-2.97125 -8.83046,-3.91539 -3.27673,-0.94415 -6.58118,-1.8605 -9.91344,-2.74911 -4.66517,-1.22183 -8.74714,-2.27703 -12.24601,-3.16563 -3.49888,-0.88861 -6.74779,-1.94381 -9.74683,-3.165639 -2.88797,-1.22183 -5.19275,-2.97124 -6.91442,-5.24829 -1.72167,-2.27705 -2.58249,-5.52596 -2.58249,-9.74683 0,-0.77753 0.22215,-2.16595 0.66645,-4.16531 0.4443,-1.99936 1.4995,-4.02646 3.16564,-6.081354 1.66613,-2.054897 4.22083,-3.887615 7.66417,-5.49821 3.44334,-1.610595 8.16398,-2.41588 14.16205,-2.41588 4.1098,0 7.85854,0.444295 11.24634,1.332899 3.38781,0.888604 6.30349,2.304796 8.74716,4.248617 2.44366,1.943821 4.33191,4.415218 5.66482,7.414248 1.3329,2.99904 1.99935,6.66448 1.99935,10.99643 l 0,0 0,0 z" />
</svg>
