<?xml version="1.0" encoding="UTF-8" standalone="no"?>
<!-- Created with Inkscape (http://www.inkscape.org/) -->

<svg
   xmlns:dc="http://purl.org/dc/elements/1.1/"
   xmlns:cc="http://creativecommons.org/ns#"
   xmlns:rdf="http://www.w3.org/1999/02/22-rdf-syntax-ns#"
   xmlns:svg="http://www.w3.org/2000/svg"
   xmlns="http://www.w3.org/2000/svg"
   xmlns:sodipodi="http://sodipodi.sourceforge.net/DTD/sodipodi-0.dtd"
   xmlns:inkscape="http://www.inkscape.org/namespaces/inkscape"
   width="102.39022mm"
   height="116.10622mm"
   viewBox="0 0 362.79999 411.4"
   id="svg4160"
   version="1.1"
   inkscape:version="0.91 r13725"
   sodipodi:docname="html5.white.02.svg">
  <defs
     id="defs4162" />
  <sodipodi:namedview
     id="base"
     pagecolor="#ffffff"
     bordercolor="#666666"
     borderopacity="1.0"
     inkscape:pageopacity="0.0"
     inkscape:pageshadow="2"
     inkscape:zoom="0.70710678"
     inkscape:cx="83.840932"
     inkscape:cy="-14.54387"
     inkscape:document-units="px"
     inkscape:current-layer="layer1"
     showgrid="false"
     fit-margin-top="0"
     fit-margin-left="0"
     fit-margin-right="0"
     fit-margin-bottom="0"
     inkscape:window-width="1920"
     inkscape:window-height="1016"
     inkscape:window-x="0"
     inkscape:window-y="27"
     inkscape:window-maximized="1" />
  <metadata
     id="metadata4165">
    <rdf:RDF>
      <cc:Work
         rdf:about="">
        <dc:format>image/svg+xml</dc:format>
        <dc:type
           rdf:resource="http://purl.org/dc/dcmitype/StillImage" />
        <dc:title></dc:title>
      </cc:Work>
    </rdf:RDF>
  </metadata>
  <g
     inkscape:label="Layer 1"
     inkscape:groupmode="layer"
     id="layer1"
     transform="translate(-228.72193,-139.55542)">
    <path
       inkscape:connector-curvature="0"
       style="fill:#e44d26"
       d="m 261.72193,509.95542 -33,-370.4 362.8,0 -33,370.2 -148.7,41.2"
       id="path8" />
    <path
       inkscape:connector-curvature="0"
       style="fill:#f16529"
       d="m 410.12193,519.45542 0,-349.5 148.3,0 -28.3,316"
       id="path10" />
    <path
       inkscape:connector-curvature="0"
       style="fill:#ebebeb"
       d="m 296.12193,215.25542 114,0 0,45.4 -64.2,0 4.2,46.5 60,0 0,45.3 -101.6,0 m 2,22.8 45.6,0 3.2,36.3 50.8,13.6 0,47.4 -93.2,-26"
       id="path12" />
    <path
       inkscape:connector-curvature="0"
       style="fill:#ffffff"
       d="m 523.72193,215.25542 -113.8,0 0,45.4 109.6,0 m -4.1,46.5 -105.5,0 0,45.4 56,0 -5.3,59 -50.7,13.6 0,47.2 93,-25.8"
       id="path14" />
  </g>
</svg>
