<?xml version="1.0" encoding="UTF-8" standalone="no"?>
<svg
   xmlns:dc="http://purl.org/dc/elements/1.1/"
   xmlns:cc="http://creativecommons.org/ns#"
   xmlns:rdf="http://www.w3.org/1999/02/22-rdf-syntax-ns#"
   xmlns:svg="http://www.w3.org/2000/svg"
   xmlns="http://www.w3.org/2000/svg"
   xmlns:xlink="http://www.w3.org/1999/xlink"
   xmlns:sodipodi="http://sodipodi.sourceforge.net/DTD/sodipodi-0.dtd"
   xmlns:inkscape="http://www.inkscape.org/namespaces/inkscape"
   width="512px"
   height="314px"
   viewBox="0 0 512 314"
   version="1.1"
   preserveAspectRatio="xMidYMid"
   id="svg2"
   inkscape:version="0.91 r13725"
   sodipodi:docname="nodejs.on-green.svg">
  <metadata
     id="metadata123">
    <rdf:RDF>
      <cc:Work
         rdf:about="">
        <dc:format>image/svg+xml</dc:format>
        <dc:type
           rdf:resource="http://purl.org/dc/dcmitype/StillImage" />
        <dc:title></dc:title>
      </cc:Work>
    </rdf:RDF>
  </metadata>
  <sodipodi:namedview
     pagecolor="#ffffff"
     bordercolor="#666666"
     borderopacity="1"
     objecttolerance="10"
     gridtolerance="10"
     guidetolerance="10"
     inkscape:pageopacity="0"
     inkscape:pageshadow="2"
     inkscape:window-width="1920"
     inkscape:window-height="1043"
     id="namedview121"
     showgrid="false"
     inkscape:zoom="0.59375"
     inkscape:cx="257.68421"
     inkscape:cy="157"
     inkscape:window-x="0"
     inkscape:window-y="0"
     inkscape:window-maximized="1"
     inkscape:current-layer="svg2" />
  <defs
     id="defs4">
    <linearGradient
       x1="79.823228"
       y1="21.345526"
       x2="32.862126"
       y2="105.42175"
       id="linearGradient-1"
       gradientTransform="scale(0.93681241,1.0674496)"
       gradientUnits="userSpaceOnUse">
      <stop
         stop-color="#41873F"
         offset="0%"
         id="stop7" />
      <stop
         stop-color="#418B3D"
         offset="32.88%"
         id="stop9" />
      <stop
         stop-color="#419637"
         offset="63.52%"
         id="stop11" />
      <stop
         stop-color="#3FA92D"
         offset="93.19%"
         id="stop13" />
      <stop
         stop-color="#3FAE2A"
         offset="100%"
         id="stop15" />
    </linearGradient>
    <path
       id="path-2"
       d="M57.903386,1.84920993 C56.0541761,0.809029345 53.8582393,0.809029345 52.0090293,1.84920993 L3.351693,29.9340858 C1.50248307,30.9742664 0.462302483,32.9390519 0.462302483,35.0194131 L0.462302483,91.3047404 C0.462302483,93.3851016 1.61805869,95.3498871 3.351693,96.3900677 L52.0090293,124.474944 C53.8582393,125.515124 56.0541761,125.515124 57.903386,124.474944 L106.560722,96.3900677 C108.409932,95.3498871 109.450113,93.3851016 109.450113,91.3047404 L109.450113,35.0194131 C109.450113,32.9390519 108.294357,30.9742664 106.560722,29.9340858 L57.903386,1.84920993 L57.903386,1.84920993 Z" />
    <linearGradient
       x1="51.368568"
       y1="64.593354"
       x2="184.6737"
       y2="-19.865484"
       id="linearGradient-4"
       gradientTransform="scale(0.92601891,1.0798916)"
       gradientUnits="userSpaceOnUse">
      <stop
         stop-color="#41873F"
         offset="13.76%"
         id="stop19" />
      <stop
         stop-color="#54A044"
         offset="40.32%"
         id="stop21" />
      <stop
         stop-color="#66B848"
         offset="71.36%"
         id="stop23" />
      <stop
         stop-color="#6CC04A"
         offset="90.81%"
         id="stop25" />
    </linearGradient>
    <linearGradient
       x1="5.4425087"
       y1="1.3971804"
       x2="60.600268"
       y2="1.3971804"
       id="linearGradient-5"
       gradientTransform="scale(1.6329932,0.61237243)"
       gradientUnits="userSpaceOnUse">
      <stop
         stop-color="#6CC04A"
         offset="9.191646%"
         id="stop28" />
      <stop
         stop-color="#66B848"
         offset="28.64%"
         id="stop30" />
      <stop
         stop-color="#54A044"
         offset="59.68%"
         id="stop32" />
      <stop
         stop-color="#41873F"
         offset="86.24%"
         id="stop34" />
    </linearGradient>
    <linearGradient
       x1="-1.4213012"
       y1="66.989323"
       x2="120.27941"
       y2="66.989323"
       id="linearGradient-6"
       gradientTransform="scale(0.92514088,1.0809165)"
       gradientUnits="userSpaceOnUse">
      <stop
         stop-color="#6CC04A"
         offset="9.191646%"
         id="stop37" />
      <stop
         stop-color="#66B848"
         offset="28.64%"
         id="stop39" />
      <stop
         stop-color="#54A044"
         offset="59.68%"
         id="stop41" />
      <stop
         stop-color="#41873F"
         offset="86.24%"
         id="stop43" />
    </linearGradient>
    <linearGradient
       x1="118.03546"
       y1="68.363232"
       x2="169.63085"
       y2="68.363232"
       id="linearGradient-7"
       gradientTransform="scale(0.65465354,1.5275255)"
       gradientUnits="userSpaceOnUse">
      <stop
         stop-color="#6CC04A"
         offset="9.191646%"
         id="stop46" />
      <stop
         stop-color="#66B848"
         offset="28.64%"
         id="stop48" />
      <stop
         stop-color="#54A044"
         offset="59.68%"
         id="stop50" />
      <stop
         stop-color="#41873F"
         offset="86.24%"
         id="stop52" />
    </linearGradient>
    <linearGradient
       x1="-1.0386477"
       y1="150.75189"
       x2="87.896973"
       y2="150.75189"
       id="linearGradient-8"
       gradientTransform="scale(1.2659754,0.78990479)"
       gradientUnits="userSpaceOnUse">
      <stop
         stop-color="#6CC04A"
         offset="9.191646%"
         id="stop55" />
      <stop
         stop-color="#66B848"
         offset="28.64%"
         id="stop57" />
      <stop
         stop-color="#54A044"
         offset="59.68%"
         id="stop59" />
      <stop
         stop-color="#41873F"
         offset="86.24%"
         id="stop61" />
    </linearGradient>
    <linearGradient
       x1="100.85383"
       y1="37.182376"
       x2="46.004009"
       y2="216.51357"
       id="linearGradient-9"
       gradientTransform="scale(1.2659754,0.78990479)"
       gradientUnits="userSpaceOnUse">
      <stop
         stop-color="#41873F"
         offset="0%"
         id="stop64" />
      <stop
         stop-color="#418B3D"
         offset="32.88%"
         id="stop66" />
      <stop
         stop-color="#419637"
         offset="63.52%"
         id="stop68" />
      <stop
         stop-color="#3FA92D"
         offset="93.19%"
         id="stop70" />
      <stop
         stop-color="#3FAE2A"
         offset="100%"
         id="stop72" />
    </linearGradient>
  </defs>
  <path
     style="fill:#ffffff;fill-opacity:1"
     inkscape:connector-curvature="0"
     id="path76"
     d="m 253.11061,313.09436 c -1.73364,0 -3.35169,-0.46231 -4.85418,-1.27134 l -15.37155,-9.13047 c -2.31152,-1.27133 -1.15576,-1.73363 -0.46231,-1.96479 3.12054,-1.04017 3.69842,-1.27133 6.93454,-3.12054 0.34673,-0.23115 0.80903,-0.11557 1.15576,0.11558 l 11.78871,7.05011 c 0.4623,0.23115 1.04018,0.23115 1.38691,0 l 46.11467,-26.69797 c 0.4623,-0.23115 0.69345,-0.69345 0.69345,-1.27133 l 0,-53.28036 c 0,-0.57788 -0.23115,-1.04018 -0.69345,-1.27133 l -46.11467,-26.58239 c -0.46231,-0.23116 -1.04018,-0.23116 -1.38691,0 l -46.11467,26.58239 c -0.46231,0.23115 -0.69346,0.80903 -0.69346,1.27133 l 0,53.28036 c 0,0.4623 0.23115,1.04018 0.69346,1.27133 l 12.59774,7.28127 c 6.81896,3.46727 11.09526,-0.57788 11.09526,-4.62303 l 0,-52.58691 c 0,-0.69345 0.57788,-1.3869 1.38691,-1.3869 l 5.89435,0 c 0.69346,0 1.38691,0.57788 1.38691,1.3869 l 0,52.58691 c 0,9.13048 -4.96975,14.44695 -13.63792,14.44695 -2.65824,0 -4.7386,0 -10.63296,-2.88938 l -12.13544,-6.93454 c -3.00497,-1.73364 -4.85418,-4.96975 -4.85418,-8.43702 l 0,-53.28036 c 0,-3.46727 1.84921,-6.70339 4.85418,-8.43702 l 46.11467,-26.69797 c 2.88939,-1.61806 6.81896,-1.61806 9.70836,0 l 46.11467,26.69797 c 3.00496,1.73363 4.85417,4.96975 4.85417,8.43702 l 0,53.28036 c 0,3.46727 -1.84921,6.70338 -4.85417,8.43702 l -46.11467,26.69797 c -1.50249,0.69345 -3.23612,1.04018 -4.85418,1.04018 z m 14.2158,-36.63748 c -20.22573,0 -24.38646,-9.24605 -24.38646,-17.10519 0,-0.69345 0.57788,-1.3869 1.38691,-1.3869 l 6.00993,0 c 0.69346,0 1.27134,0.4623 1.27134,1.15575 0.9246,6.12551 3.58284,9.13048 15.83386,9.13048 9.70835,0 13.86907,-2.19594 13.86907,-7.39684 0,-3.00497 -1.15576,-5.20091 -16.29616,-6.70339 -12.59774,-1.27133 -20.45689,-4.04515 -20.45689,-14.10023 0,-9.36162 7.85915,-14.90925 21.03477,-14.90925 14.79368,0 22.07494,5.08533 22.99955,16.18059 0,0.34672 -0.11558,0.69345 -0.34673,1.04018 -0.23115,0.23115 -0.57788,0.4623 -0.92461,0.4623 l -6.00993,0 c -0.57788,0 -1.15576,-0.4623 -1.27133,-1.04018 -1.38691,-6.35666 -4.96975,-8.43702 -14.44695,-8.43702 -10.63296,0 -11.90429,3.69842 -11.90429,6.47223 0,3.3517 1.50248,4.39188 15.83386,6.24109 14.2158,1.84921 20.91918,4.50745 20.91918,14.44695 -0.11557,10.17065 -8.43701,15.94943 -23.11512,15.94943 z" />
  <path
     style="fill:#333333"
     inkscape:connector-curvature="0"
     id="path78"
     d="m 110.02799,104.71151 c 0,-2.08036 -1.15575,-4.04514 -3.00496,-5.085325 L 58.018962,71.425734 c -0.80903,-0.462303 -1.733635,-0.693454 -2.65824,-0.80903 l -0.462302,0 c -0.924605,0 -1.84921,0.346727 -2.658239,0.80903 L 3.2361174,99.626185 c -1.84921,1.040185 -3.00496616,3.004965 -3.00496616,5.085325 l 0.11557562,75.81761 c 0,1.04018 0.57787811,2.08036 1.50248304,2.54266 0.924605,0.57788 2.0803612,0.57788 2.8893905,0 L 33.863657,166.42889 c 1.84921,-1.04018 3.004966,-3.00496 3.004966,-5.08532 l 0,-35.48172 c 0,-2.08036 1.155756,-4.04515 3.004966,-5.08533 l 12.366592,-7.16569 c 0.924605,-0.57787 1.964785,-0.80902 3.004966,-0.80902 1.04018,0 2.080361,0.23115 2.88939,0.80902 l 12.366592,7.16569 c 1.84921,1.04018 3.004966,3.00497 3.004966,5.08533 l 0,35.48172 c 0,2.08036 1.155756,4.04514 3.004966,5.08532 l 29.125059,16.64289 c 0.9246,0.57788 2.08036,0.57788 3.00496,0 0.92461,-0.4623 1.50249,-1.50248 1.50249,-2.54266 l -0.11558,-75.81761 0,0 z" />
  <path
     style="fill:#333333"
     inkscape:connector-curvature="0"
     id="path80"
     d="m 345.57111,0.34672686 c -0.92461,-0.46230248 -2.08037,-0.46230248 -2.88939,0 -0.92461,0.57787811 -1.50249,1.50248304 -1.50249,2.54266364 l 0,75.1241535 c 0,0.693454 -0.34672,1.386908 -1.04018,1.84921 -0.69345,0.346727 -1.38691,0.346727 -2.08036,0 l -12.25101,-7.050113 c -1.84922,-1.040181 -4.04515,-1.040181 -5.89436,0 l -49.00407,28.316029 c -1.84921,1.04018 -3.00496,3.00496 -3.00496,5.08532 l 0,56.51648 c 0,2.08036 1.15575,4.04515 3.00496,5.08533 l 49.00407,28.31603 c 1.84921,1.04018 4.04514,1.04018 5.89436,0 l 49.00406,-28.31603 c 1.84921,-1.04018 3.00496,-3.00497 3.00496,-5.08533 l 0,-140.886678 c 0,-2.195937 -1.15575,-4.160722 -3.00496,-5.200903 l -29.24063,-16.29616214 0,0 z M 341.06366,144.1228 c 0,0.57788 -0.23115,1.04018 -0.69346,1.27133 l -16.75846,9.70835 c -0.4623,0.23115 -1.04018,0.23115 -1.50248,0 l -16.75847,-9.70835 c -0.4623,-0.23115 -0.69345,-0.80903 -0.69345,-1.27133 l 0,-19.4167 c 0,-0.57788 0.23115,-1.04019 0.69345,-1.27134 l 16.75847,-9.70835 c 0.4623,-0.23115 1.04018,-0.23115 1.50248,0 l 16.75846,9.70835 c 0.46231,0.23115 0.69346,0.80903 0.69346,1.27134 l 0,19.4167 0,0 z" />
  <g
     style="fill:none"
     id="g82"
     transform="translate(401.0474,70.501129)">
    <path
       style="fill:#333333"
       inkscape:connector-curvature="0"
       id="path84"
       d="m 107.6009,53.742664 c 1.84921,-1.040181 2.88939,-3.004966 2.88939,-5.085328 l 0,-13.753498 c 0,-2.080362 -1.15575,-4.045147 -2.88939,-5.085328 L 58.943567,1.6180587 c -1.84921,-1.0401806 -4.045147,-1.0401806 -5.894357,0 L 4.0451467,29.934086 c -1.8492099,1.04018 -3.0049661,3.004966 -3.0049661,5.085327 l 0,56.516479 c 0,2.080361 1.1557562,4.045146 3.0049661,5.085327 L 52.702483,124.35937 c 1.84921,1.04018 4.045147,1.04018 5.778781,0 l 29.471783,-16.41174 c 0.924605,-0.4623 1.502483,-1.50248 1.502483,-2.54266 0,-1.04018 -0.577878,-2.08036 -1.502483,-2.54267 L 38.717833,74.546275 C 37.793228,73.968397 37.21535,73.043792 37.21535,72.003612 l 0,-17.68307 c 0,-1.040181 0.577878,-2.080361 1.502483,-2.542664 L 54.08939,42.994131 c 0.924605,-0.577878 2.080362,-0.577878 3.004967,0 l 15.371557,8.783747 c 0.924605,0.577878 1.502483,1.502483 1.502483,2.542664 l 0,13.869074 c 0,1.040181 0.577878,2.080361 1.502483,2.542664 0.924605,0.577878 2.080362,0.577878 3.004967,0 l 29.125053,-16.989616 0,0 z" />
    <path
       style="fill:#539e43"
       inkscape:connector-curvature="0"
       id="path86"
       d="m 55.245147,51.084424 c 0.346727,-0.231151 0.809029,-0.231151 1.155756,0 l 9.361625,5.432055 c 0.346727,0.231151 0.577878,0.577878 0.577878,1.04018 l 0,10.864108 c 0,0.462303 -0.231151,0.80903 -0.577878,1.040181 l -9.361625,5.432054 c -0.346727,0.231152 -0.809029,0.231152 -1.155756,0 L 45.883521,69.460948 C 45.536795,69.229797 45.305643,68.88307 45.305643,68.420767 l 0,-10.864108 c 0,-0.462302 0.231152,-0.809029 0.577878,-1.04018 l 9.361626,-5.432055 0,0 z" />
  </g>
  <g
     style="fill:none"
     id="g88"
     transform="translate(134.06772,70.501129)">
    <mask
       fill="white"
       id="mask-3">
      <use
         height="100%"
         width="100%"
         y="0"
         x="0"
         id="use91"
         xlink:href="#path-2" />
    </mask>
    <use
       height="100%"
       width="100%"
       y="0"
       x="0"
       style="fill:url(#linearGradient-1)"
       id="use93"
       xlink:href="#path-2" />
    <g
       id="g95"
       mask="url(#mask-3)">
      <path
         inkscape:connector-curvature="0"
         id="path97"
         d="M 51.893454,1.8492099 3.1205418,29.934086 C 1.2713318,30.974266 0,32.939052 0,35.019413 L 0,91.30474 c 0,1.386908 0.5778781,2.65824 1.5024831,3.69842 L 56.285327,1.1557562 C 54.89842,0.92460497 53.280361,1.0401806 51.893454,1.8492099 l 0,0 z" />
      <path
         inkscape:connector-curvature="0"
         id="path99"
         d="m 56.632054,125.05282 c 0.462303,-0.11557 0.924605,-0.34672 1.386908,-0.57788 L 106.79187,96.390068 c 1.84921,-1.040181 3.00497,-3.004966 3.00497,-5.085328 l 0,-56.285327 c 0,-1.502483 -0.69345,-3.004966 -1.73364,-4.045147 l -51.431146,94.078554 0,0 z" />
      <path
         inkscape:connector-curvature="0"
         style="fill:url(#linearGradient-4)"
         id="path101"
         d="M 106.6763,29.934086 57.78781,1.8492099 C 57.325508,1.6180587 56.74763,1.3869074 56.285327,1.2713318 L 1.5024831,95.118736 c 0.4623024,0.577878 1.0401806,1.040181 1.6180587,1.386907 L 52.009029,124.59052 c 1.386908,0.80903 3.004966,1.04018 4.50745,0.57788 L 107.94763,31.089842 c -0.34673,-0.462303 -0.80903,-0.809029 -1.27133,-1.155756 l 0,0 z" />
    </g>
    <g
       id="g103"
       mask="url(#mask-3)">
      <g
         id="g105"
         transform="translate(0,-9.24605)">
        <path
           style="fill:none"
           inkscape:connector-curvature="0"
           id="path107"
           d="m 109.79684,100.55079 0,-56.285327 c 0,-2.080361 -1.27133,-4.045147 -3.12054,-5.085328 L 57.78781,11.09526 C 57.209932,10.748533 56.632054,10.517382 55.9386,10.401806 l 53.51151,91.420314 c 0.23115,-0.34672 0.34673,-0.80903 0.34673,-1.27133 l 0,0 z" />
        <path
           style="fill:none"
           inkscape:connector-curvature="0"
           id="path109"
           d="M 3.1205418,39.180135 C 1.2713318,40.220316 0,42.185102 0,44.265463 l 0,56.285327 c 0,2.08036 1.3869074,4.04515 3.1205418,5.08533 l 48.8884872,28.08487 c 1.155757,0.69346 2.427088,0.92461 3.813996,0.69346 L 3.4672686,39.06456 l -0.3467268,0.115575 0,0 z" />
        <path
           inkscape:connector-curvature="0"
           style="fill:url(#linearGradient-5);fill-rule:evenodd"
           id="path111"
           d="m 50.390971,0.80902934 -0.693454,0.34672686 0.924605,0 -0.231151,-0.34672686 z" />
        <path
           inkscape:connector-curvature="0"
           style="fill:url(#linearGradient-6);fill-rule:evenodd"
           id="path113"
           d="m 106.79187,105.63612 c 1.38691,-0.80903 2.42709,-2.19594 2.88939,-3.69842 L 56.054176,10.401806 c -1.386907,-0.231151 -2.88939,-0.115576 -4.160722,0.693454 l -48.541761,27.9693 52.355756,95.46546 c 0.693454,-0.11557 1.502483,-0.34672 2.195937,-0.69345 l 48.888484,-28.20045 0,0 z" />
        <path
           inkscape:connector-curvature="0"
           style="fill:url(#linearGradient-7);fill-rule:evenodd"
           id="path115"
           d="m 111.29932,104.71151 -0.34672,-0.57788 0,0.80903 0.34672,-0.23115 z" />
        <path
           inkscape:connector-curvature="0"
           style="fill:url(#linearGradient-8);fill-rule:evenodd"
           id="path117"
           d="m 106.79187,105.63612 -48.772908,28.08487 c -0.693454,0.34673 -1.386908,0.57788 -2.195937,0.69346 l 0.924605,1.73363 54.08939,-31.32099 0,-0.69346 -1.38691,-2.31151 c -0.23115,1.61806 -1.27133,3.00497 -2.65824,3.814 l 0,0 z" />
        <path
           inkscape:connector-curvature="0"
           style="fill:url(#linearGradient-9);fill-rule:evenodd"
           id="path119"
           d="m 106.79187,105.63612 -48.772908,28.08487 c -0.693454,0.34673 -1.386908,0.57788 -2.195937,0.69346 l 0.924605,1.73363 54.08939,-31.32099 0,-0.69346 -1.38691,-2.31151 c -0.23115,1.61806 -1.27133,3.00497 -2.65824,3.814 l 0,0 z" />
      </g>
    </g>
  </g>
</svg>
